<?xml version="1.0" standalone="no"?><svg xmlns="http://www.w3.org/2000/svg" viewBox="0 0 1440 320"><path fill="#ffd700" fill-opacity="1" d="M0,192L26.7,165.3C53.3,139,107,85,160,90.7C213.3,96,267,160,320,165.3C373.3,171,427,117,480,122.7C533.3,128,587,192,640,202.7C693.3,213,747,171,800,170.7C853.3,171,907,213,960,213.3C1013.3,213,1067,171,1120,170.7C1173.3,171,1227,213,1280,213.3C1333.3,213,1387,171,1413,149.3L1440,128L1440,0L1413.3,0C1386.7,0,1333,0,1280,0C1226.7,0,1173,0,1120,0C1066.7,0,1013,0,960,0C906.7,0,853,0,800,0C746.7,0,693,0,640,0C586.7,0,533,0,480,0C426.7,0,373,0,320,0C266.7,0,213,0,160,0C106.7,0,53,0,27,0L0,0Z"></path></svg>